<?xml version="1.0" encoding="utf-8"?>
<!-- Generator: Adobe Illustrator 18.1.0, SVG Export Plug-In . SVG Version: 6.00 Build 0)  -->
<svg version="1.1" id="Layer_1" xmlns="http://www.w3.org/2000/svg" xmlns:xlink="http://www.w3.org/1999/xlink" x="0px" y="0px"
	 viewBox="0 0 14400 14400" enable-background="new 0 0 14400 14400" xml:space="preserve">
<rect x="7072.3" y="7071.6" fill="#0F194D" width="255.2" height="256"/>
<path fill="#E63917" d="M7242.5,7327.3h-171.2v-255.9h255.9v171.2C7327.2,7289.4,7289.3,7327.3,7242.5,7327.3z"/>
<g>
	<polygon fill="#FFFFFF" points="7124.9,7103 7085.5,7326.3 7085.4,7327.1 7108,7327.1 7147.5,7103 	"/>
	<path fill="#FFFFFF" d="M7238.4,7103h-59.2l-38.7,224.1h59.7c18.7,0,34.1-3.4,45.8-10.2c11.7-6.8,21.1-17.8,28.2-32.7
		c4.1-8.6,9.4-32.3,15.8-70.4c6-35.2,9-56.7,8.9-63.8C7298.5,7118.8,7278.1,7103,7238.4,7103z M7237.5,7297.9
		c-7.4,4.6-18.7,6.9-33.5,6.9h-36.9l31-179.5h36.6c15.8,0,27,2.6,33.3,7.8c5.1,4.3,7.8,11.3,7.9,20.9c0.1,7-2.8,27.7-8.7,61.5
		c-6.1,35-10.7,56-13.7,62.4C7249.1,7287.5,7243.7,7294.3,7237.5,7297.9z"/>
</g>
</svg>
