<?xml version="1.0" encoding="utf-8"?>
<!-- Generator: Adobe Illustrator 18.1.0, SVG Export Plug-In . SVG Version: 6.00 Build 0)  -->
<svg version="1.1" id="Layer_1" xmlns="http://www.w3.org/2000/svg" xmlns:xlink="http://www.w3.org/1999/xlink" x="0px" y="0px"
	 viewBox="0 0 14400 14400" enable-background="new 0 0 14400 14400" xml:space="preserve">
<rect x="6879.2" y="7071.5" fill="#0F194D" width="640.6" height="235.7"/>
<g>
	<path fill="#FFFFFF" d="M6925.9,7211.4c-11.2-0.1-19.9-3.1-26.1-9l8.7-7.7c4.6,4,11,6,19.4,6.1c7.6,0,13.9-2.3,19.1-7
		c4.3-3.8,6.8-8.4,7.4-13.8c1.1-9.8-5.1-17.6-18.6-23.3l-0.8-0.4c-6.8-3-11.6-5.6-14.3-8c-4.6-4.2-6.6-9.6-6-16.2
		c0.6-5.9,3-11.3,7.5-16.1c4.5-4.9,9.9-8,16.1-9.5c3.4-0.7,6.5-1.1,9.5-1.1c7.9,0,14.9,2.8,21.2,8.5l-8.5,7.9
		c-4.3-3.9-9.2-5.9-14.6-5.9c-2.1,0-4.4,0.3-6.9,0.8c-3.3,0.7-6.2,2.3-8.8,4.8c-2.8,2.8-4.3,6-4.7,9.5c-0.3,3.8,1,6.8,3.8,9.1
		c1.9,1.7,5.8,3.8,11.6,6.2l0.8,0.4c17.3,7.4,25.2,18.2,23.6,32.5c-0.9,8.3-4.8,15.5-11.7,21.6c-7.8,6.9-16.9,10.3-27.3,10.3H6925.9
		z"/>
	<path fill="#FFFFFF" d="M6987.3,7203.6c-6-5.2-9.5-12.2-10.6-20.9c-1.5-13.3,1.1-28.8,7.6-46.7c3.7-10.1,9.3-17.8,16.8-23.3
		c7.4-5.4,16.3-8,26.6-8c13.9,0,23.8,5.1,29.6,15.2l-10,5.8c-4.3-7-11.4-10.4-21.4-10.4c-15.4,0-25.8,7.6-31.4,22.7
		c-6,16.2-8.2,30.2-6.9,41.8c0.7,6.6,3.2,11.7,7.5,15.5c4.4,3.8,9.9,5.6,16.6,5.6c9.4,0,17.3-3.4,23.7-10.1l8,5.8
		c-9.1,9.9-20.3,14.9-33.6,14.9C7000.8,7211.4,6993.3,7208.8,6987.3,7203.6z"/>
	<path fill="#FFFFFF" d="M7064.7,7203.5c-5.9-5.2-9.2-12.2-9.8-21c-1.3-16.8,1.2-31.9,7.5-45.4c4.9-10.5,11.3-18.6,19.4-24.2
		c8.1-5.8,17-8.6,26.9-8.6c9,0,16.1,2.7,21.1,8c5.1,5.4,7.5,12.8,7.4,22.3c0,5.7-0.7,10.4-1.9,14l-1.1,3.7l-68.3,12.1l-0.1,2
		c-0.4,4.6-0.4,9-0.1,13.4c0.5,6.5,2.8,11.6,7.1,15.2c4.2,3.8,9.7,5.6,16.6,5.6c9.8,0,18.2-3,25.5-9l7,6.8
		c-9.8,8.5-21.2,12.7-34.3,12.7C7078.1,7211.4,7070.6,7208.7,7064.7,7203.5z M7072.1,7140c-1.5,3.2-2.7,6.8-3.7,10.8l-0.8,3
		l58.2-10.3l0.2-2c0.1-1.7,0.2-3.4,0.3-5.2c0.1-14.4-6.4-21.6-19.6-21.6C7091.5,7114.6,7079.9,7123.1,7072.1,7140z"/>
	<path fill="#FFFFFF" d="M7197.4,7209l12.4-70.2c1.7-9.4,0.9-15.9-2.3-19.4c-2.4-2.6-6.4-4-12.1-4c-0.7,0-1.5,0-2.3,0.1
		c-10.2,0.6-20.6,3.8-31.2,9.6l-1.2,0.6L7146,7209h-10.7l18-101.9h11.1c0.1,0.8,0.4,1.5,0.9,2c0.7,1,1.8,1.4,3.2,1.4
		c0.7,0,1.6-0.2,2.5-0.5c9.8-3.1,17.6-4.8,23.5-5.2c1-0.1,2-0.1,2.9-0.1c8.5,0,14.8,2.3,18.9,6.8c5,5.6,6.4,14.6,4.2,27.1L7208,7209
		H7197.4z"/>
	<path fill="#FFFFFF" d="M7237.5,7203.5c-5.9-5.2-9.2-12.2-9.8-21c-1.3-16.8,1.2-31.9,7.5-45.4c4.9-10.5,11.3-18.6,19.4-24.2
		c8.1-5.8,17-8.6,26.9-8.6c9,0,16.1,2.7,21.1,8c5.1,5.4,7.5,12.8,7.4,22.3c0,5.7-0.7,10.4-1.9,14l-1.1,3.7l-68.3,12.1l-0.1,2
		c-0.4,4.6-0.4,9-0.1,13.4c0.5,6.5,2.8,11.6,7.1,15.2c4.2,3.8,9.7,5.6,16.6,5.6c9.8,0,18.2-3,25.5-9l7,6.8
		c-9.8,8.5-21.2,12.7-34.3,12.7C7250.9,7211.4,7243.4,7208.7,7237.5,7203.5z M7244.9,7140c-1.5,3.2-2.7,6.8-3.7,10.8l-0.8,3
		l58.2-10.3l0.2-2c0.1-1.7,0.2-3.4,0.3-5.2c0.1-14.4-6.4-21.6-19.6-21.6C7264.3,7114.6,7252.7,7123.1,7244.9,7140z"/>
	<path fill="#E63917" d="M7340.6,7104.8h31.1l-30.3,171.9h-31.1L7340.6,7104.8z"/>
	<path fill="#E63917" d="M7488,7143.7c0.1,5.6-2,20.9-6.2,45.9c-4.7,27.4-8.6,44.6-11.8,51.6c-11.1,23.6-31.2,35.4-60.2,35.4h-49.4
		l29.7-171.9h49.1C7471.3,7104.8,7487.5,7117.8,7488,7143.7z M7441.6,7232.8c1.9-4.2,4.9-18.3,9-42c3.9-22.8,5.9-36.6,6-41.3
		c-0.1-4.9-1.3-8.2-3.6-10.1c-3.2-2.7-9.5-4-19-4h-17.9l-19.2,110.8h18.4c9.1,0,15.6-1.3,19.4-3.8
		C7437,7240.7,7439.3,7237.6,7441.6,7232.8z"/>
</g>
</svg>
